<svg width="120" height="120" viewBox="0 0 120 120" xmlns="http://www.w3.org/2000/svg">
  <defs>
    <linearGradient id="bg" x1="0" y1="0" x2="1" y2="1">
      <stop offset="0%" stop-color="#1e2d10"/>
      <stop offset="100%" stop-color="#0d1808"/>
    </linearGradient>
    <linearGradient id="bird" x1="0" y1="0" x2="1" y2="1">
      <stop offset="0%" stop-color="#f0dea0"/>
      <stop offset="100%" stop-color="#c8a848"/>
    </linearGradient>
    <clipPath id="clip">
      <rect width="120" height="120" rx="26"/>
    </clipPath>
  </defs>
  <g clip-path="url(#clip)">
    <rect width="120" height="120" fill="url(#bg)"/>
    <ellipse cx="60" cy="108" rx="52" ry="16" fill="#0a1406" opacity="0.7"/>
    <path d="M10 88 Q22 60 44 54 Q36 72 38 86Z" fill="#2e5410" opacity="0.9"/>
    <path d="M10 88 Q22 60 44 54 Q34 68 36 80Z" fill="#4a7a1c" opacity="0.75"/>
    <path d="M110 88 Q98 60 76 54 Q84 72 82 86Z" fill="#2e5410" opacity="0.9"/>
    <path d="M110 88 Q98 60 76 54 Q86 68 84 80Z" fill="#4a7a1c" opacity="0.75"/>
    <path d="M30 88 Q38 58 60 48 Q42 64 42 82Z" fill="#3d6e18" opacity="0.85"/>
    <path d="M90 88 Q82 58 60 48 Q78 64 78 82Z" fill="#3d6e18" opacity="0.85"/>
    <path d="M38 72 Q42 56 60 50 Q48 60 48 72Z" fill="#5a9028" opacity="0.7"/>
    <path d="M82 72 Q78 56 60 50 Q72 60 72 72Z" fill="#5a9028" opacity="0.7"/>
    <path d="M46 60 Q50 44 60 38 Q70 44 74 60 Q70 74 60 76 Q50 74 46 60Z" fill="url(#bird)"/>
    <path d="M50 56 Q53 46 60 42 Q67 46 70 56 Q67 65 60 67 Q53 65 50 56Z" fill="#faf0c8" opacity="0.65"/>
    <circle cx="53" cy="51" r="3.2" fill="#1e1008"/>
    <circle cx="54.1" cy="50" r="1.1" fill="#ffffff" opacity="0.88"/>
    <path d="M64 52 L71 49 L68 57Z" fill="#b87820" opacity="0.95"/>
    <path d="M48 68 Q40 78 34 84 L37 84 Q46 80 50 72Z" fill="#3d6e18" opacity="0.8"/>
    <path d="M72 68 Q80 78 86 84 L83 84 Q74 80 70 72Z" fill="#3d6e18" opacity="0.8"/>
    <path d="M54 76 L52 90 L55 90 L60 84 L65 90 L68 90 L66 76Z" fill="#a07018" opacity="0.85"/>
    <path d="M56 38 Q58 28 60 24 Q62 28 64 38 Q62 33 60 32 Q58 33 56 38Z" fill="#88c040" opacity="0.6"/>
    <circle cx="36" cy="38" r="3.5" fill="#4a7a1c" opacity="0.45"/>
    <circle cx="88" cy="32" r="2.5" fill="#5a9028" opacity="0.35"/>
    <circle cx="94" cy="74" r="3" fill="#3a6010" opacity="0.3"/>
  </g>
</svg>
